<?xml version="1.0" encoding="utf-8"?>
<!-- Generator: Adobe Illustrator 26.1.0, SVG Export Plug-In . SVG Version: 6.00 Build 0)  -->
<svg version="1.1" id="Layer_1" xmlns="http://www.w3.org/2000/svg" xmlns:xlink="http://www.w3.org/1999/xlink" x="0px" y="0px"
	 viewBox="0 0 2000 2000" style="enable-background:new 0 0 2000 2000;" xml:space="preserve">
<style type="text/css">
	.st0{fill:#D0A85C;}
</style>
<g>
	<path class="st0" d="M994.7,324.4c171.6,0.2,335.6,117,377.6,282.8c36.2,137.7-20.7,293.7-136.6,376.3
		c-138.6,103-348.6,94.9-476.3-22.7c-79.2-70.6-125.6-175.9-124.3-281.9c2.3-116.9,76.2-230.3,184.4-275.8
		c99.6-41,221.7-27.7,307.1,38.9c86,64.9,129.5,189.5,81.8,289.9c-51.8,117.1-230,153.6-317.7,56.3c-77.7-79-25.5-248.6,95.2-241.1
		c81.1-7,121.9,105.3,68.4,159.2c-24.8,25.2-71.9,26.8-69.1-10.5c2.1-28.1,68.8-49.3,38.7-81.5c-50.4-41.9-112.3,25.3-98.1,78.4
		c6.2,61,78.4,96.7,132.3,72.2c84.8-32.1,110.6-154,48.2-219.1c-69.7-79.9-206.4-70-273.3,9c-81.4,85.1-70.4,236.7,19.2,311.9
		c112.6,104.1,312.6,80.1,401.1-43.7c49.7-68.5,67.1-158.6,47.5-241.1c-17.1-101.9-96.7-182.9-188.6-223.4
		C1074.5,342,1038.6,336.5,994.7,324.4z"/>
	<path class="st0" d="M148.9,687.2c69.5,46,133.7,104.9,166.4,183.2c35.8,77.9,39,166.7,22.3,249.9c-82.2-39.5-161.9-98.1-195.9-186
		C105.3,856,112,764.1,148.9,687.2z"/>
	<path class="st0" d="M1672.6,1121.9c-31.5-162.6,44.8-344.7,189.1-429.2c41.4,84.3,37.9,185.4-4,268.8
		C1824.2,1040.5,1745.7,1085,1672.6,1121.9z"/>
	<path class="st0" d="M50,1239c73.2-90.3,221.6-91.9,303-14.6C280.5,1312.4,132.5,1318.7,50,1239z"/>
	<path class="st0" d="M1655.7,1217.2c83.4-67.1,223.1-64.4,294.3,21.8l0,0c-47.5,42.5-118.9,73.6-182.4,57
		C1721.1,1285.6,1687.7,1249.8,1655.7,1217.2z"/>
	<path class="st0" d="M731.4,1153.9c-119.9-78.1-194.5-212.2-219.1-351.1C488,648.1,535.8,482.9,610,347.3c4.7,0.7,9.5,1,14.4,1
		c57.4,0,103.9-46.5,103.9-103.9s-46.5-103.9-103.9-103.9s-103.9,46.5-103.9,103.9c0,33,15.4,62.3,39.3,81.4
		c-39.5,64.5-77.9,139.1-101.7,211c-57.7,168.8-48.4,363.9,38.9,521c86.2,145.6,233.4,243.2,380.7,319.5
		c24.8-32.9,51.6-64.1,78.5-95.5C860.5,1236,802.2,1203.8,731.4,1153.9z M624.5,194c27.9,0,50.5,22.6,50.5,50.5
		s-22.6,50.5-50.5,50.5S574,272.3,574,244.5S596.6,194,624.5,194z"/>
	<path class="st0" d="M1584.8,1209c-23.6,31-36.6,73.2-74.8,90.3c-58.1,34.7-127.1,16.4-189.6,7.4c98.2-118,219.6-228.4,257.4-383.2
		c55.3-203-4.4-425.2-113.8-600.3c22.1-19.1,36.1-47.2,36.1-78.7c0-57.4-46.5-103.9-103.9-103.9s-103.9,46.5-103.9,103.9
		s46.5,103.9,103.9,103.9c4,0,7.9-0.2,11.7-0.7c78.4,133.9,125.4,299.3,99.1,454.2c-18.2,142.9-104.8,272.9-225.8,350
		c-90,68.4-207.1,96.2-285.1,181c-36.4,37.4-54.3,81.1-73.5,128.8c-85.3-31.8-159-85.9-242.5-121.4
		c-80.3-35.3-165.4-72.5-254.9-67.1c-28.1,1-36.9,50-2.9,45.8c71.6-7.1,141.1,15.2,202.1,51.6c93.2,54.2,197.2,125.8,277.5,198
		c0,53.4,0,74.2,2.4,124.8c3.2,67.9,61,120.7,109.9,166.2c49.5-45.8,95.7-101.6,110.8-167.1c12.7-54.7-4.2-117.3-38.8-163.3
		c-13.2,27.1-25.3,54.8-36.2,82.9c7.4,13.3,25.6,81.9-17.5,116.9c-32.5-28.6-34.6-87.1-24-125.7c29.2-91.8,94.5-173.8,184.5-211.5
		c101.6-49.7,223,11.8,322.6-45.6c47.1-28.2,96.4-65.9,112.9-120.6C1639.4,1198.6,1596.2,1186.4,1584.8,1209z M1345.9,244.5
		c0-27.9,22.6-50.5,50.5-50.5s50.5,22.6,50.5,50.5s-22.6,50.5-50.5,50.5S1345.9,272.3,1345.9,244.5z"/>
</g>
</svg>
