<?xml version="1.0" encoding="utf-8"?>
<!-- Generator: Adobe Illustrator 26.1.0, SVG Export Plug-In . SVG Version: 6.00 Build 0)  -->
<svg version="1.1" id="Layer_1" xmlns="http://www.w3.org/2000/svg" xmlns:xlink="http://www.w3.org/1999/xlink" x="0px" y="0px"
	 viewBox="0 0 2000 2000" style="enable-background:new 0 0 2000 2000;" xml:space="preserve">
<style type="text/css">
	.st0{fill:#D0A85C;}
</style>
<g>
	<g>
		<path class="st0" d="M1023.1,50h7.6c16.3,11.4,32,23.4,47.4,35.6c-7.3,4.6-21.8,13.5-29,18c-12.3-7.1-24.6-13.9-37.1-20.5
			c1.1,23.6,16.2,41.2,31.9,57.1c42.6,3.3,86.1,6,126.4,21.3c53.1,20.3,87,70.3,110.2,119.8c31.9,70.2-0.3,151.1-43.9,208.7
			c-52.9,67.9-148,79.9-201,147.1c-31.4-37.2-68.4-70.1-114.1-88.3c-60.4-25.4-110.8-79.5-118.1-146.4
			c-6.5-33.4,12.2-64.2,29.5-94.4c-24.2,94.2,66.8,178.9,157.6,174.1c12.4-13.2,24.7-26.4,37-39.6c13.8,11.5,28.6,28,43.9,37.5
			c45.7,1.4,89.6-26.4,113.1-66c38.5-71.1,25.6-172-43-220.5c-49-42.7-117.6-25.7-175.1-14.4c-11.9-24.1-21.8-49.4-24.8-76.5
			C969.5,86.3,996,67.7,1023.1,50z M992,524.8c13.5,15.6,27.2,31.1,40.7,46.8c12.9-16.5,25.8-33,39.1-49.1
			c-13.6-13.9-27.3-28.1-41.1-42.6C1017.9,494.8,1004.9,509.8,992,524.8z"/>
	</g>
	<path class="st0" d="M986.8,219.9c29-20.6,64.1-26.9,97.7-14.3c-20.4,73.3-24.2,177-6.4,250.4l0,0l-50.3-41.4l-46.2,43.1
		C999.5,382.7,1018.4,295.1,986.8,219.9z"/>
	<g>
		<path class="st0" d="M630.2,577.7c24.2-57.3,70.7-102.3,124.6-132c-19.2,32.7-43.5,63.1-53.4,100.6c6.9,3.9,20.8,11.6,27.8,15.5
			c14.6-13.9,28.4-28.6,42.6-42.9c33.9,54.3,84.4,95.5,139.6,126.6c1,60.3,18,124.9-11.1,181.2c-3.4-9.9-10.2-29.7-13.7-39.7
			c-48.8,29-67.4,84.5-72.2,138.1c-15.5-0.8-30.8-1.6-46.2-2.6c8.6-19.1,16.4-38.7,23.7-58.4c-7.4-2.6-22.4-7.7-29.9-10.4
			c-12.6-32.8-5.3-67.4,1.8-100.3c-6.8,2.5-20.5,7.4-27.4,9.9c-1.3-26.4,3.4-52.4,10.9-77.6c-27,26.7-54,57.8-44.4,99
			c13.2-3.5,26.5-6.8,39.8-10c-11.9,21.5-24.3,42.8-36.5,64.1c23.7,6.7,26.6,32.5,34.8,52c-17.5-0.1-35-0.1-52.4-0.2
			c4.4,6.1,13.2,18.3,17.6,24.3c-32.5,3.8-65.4,2.8-97.5-4c-25.6-47.4-60-93.1-63.3-148.6c-1-16.8-1.5-50.5,0-67.2
			c2.1-24.1,12.9-46.4,22.8-68.3c4.7,22.1,9.1,44.3,14.4,66.2C610.5,660.4,611.1,614.9,630.2,577.7z M637.1,848.8
			c12.6-10.7,25.4-21.3,37.4-32.5c-7.9-17.4-16-34.7-24.5-51.8C644.1,791.8,620.5,822.1,637.1,848.8z M615.1,873
			c-13,12,13.1,42.2,27.9,26.3C654.7,883.8,626.6,862.5,615.1,873z"/>
	</g>
	<path class="st0" d="M1177.2,651.1c54.6-34.9,103.9-77.7,138.5-133.2c70.8,32.5,130.2,95.1,139.9,174.9V742
		c-3.2,36.5-13.9,71.8-24.7,106.7c0.1-56-20.4-109.3-62.5-146.9c-9.4,39.9-20.5,80.3-42.9,115.3c-48.5,82.1-135.4,129.6-218.2,170.5
		c-91.5,46-196,71.4-272.1,143.6c142.6-81.8,318.4-90,450.4-192.6c43.2-30.9,70.9-77.4,92.3-125c12.5,40.2,15.8,82.4,10.9,124.1
		c-11.3-8.5-22.4-17.5-35.2-23.8c-25.8,41.4-31.6,92.7-62.9,131.4c-70.3,96.3-189.7,130.8-288.2,189.3
		c-66,36.6-99.7,108.1-132.1,172.8c-1.3-25-2.5-49.8-3.8-74.7c-12.3,29.4-29.4,60.9-20.4,93.7c7.4,34.8,36.1,58,62.2,79.3
		c-0.3,40.8-0.5,81.7-0.7,122.5c-40.5-4.1-83.2-11.7-113.9-40.7c-32.3-25.3-38.9-72.8-77-91.7c-5.8,8.8-17.4,26.3-23.2,35.2
		c-6.3-24.6-13.2-50.4-3.4-75.2c5.3-25.7,24.6-60.9-4.7-79.3c-25.8-12.7-43.8,16.7-60.3,31.4c-7.4-31.3-14-62.9-10.6-95.8
		c8.2-78.6,40.8-154.1,101.1-205.1c122.5-103.6,284.5-146.4,404.5-253.5C1176.9,803.9,1194.1,722.5,1177.2,651.1z"/>
	<path class="st0" d="M953.4,603.8c28.4,22.1,60,45.4,73.3,80.2c5.9,52.1,1.4,104.8,3.9,157.2c-21,15.1-42.4,29.9-64.4,43.9
		C964.6,791.2,957.5,697.6,953.4,603.8z"/>
	<path class="st0" d="M1062.4,676.9c5.6-34.1,39.6-50.2,66.2-66c-0.2,44.1,4.9,89.4-5,132.8c-15,28.4-40.6,49-63.3,71.2
		C1061.2,768.9,1057.2,722.6,1062.4,676.9z"/>
	<path class="st0" d="M737,928.4c32.5,18.5,69.4,18.2,104.9,11.1c-32.3,27.5-70.9,50.5-114.3,52.7c-20.5-4.8-29.1-26.4-39.7-42.1
		c20.3,5.6,40.8,9.4,61.8,11.1C746.4,953,740.2,936.6,737,928.4z"/>
	<path class="st0" d="M1268.1,1179.6c94.9,46.6,149.3,168.6,109,268.7c-28,80.3-95.8,140.2-173.8,170.7c4.4-56.5,13.4-113,9.9-170
		c41.3-17.3,79.3-47.9,91.9-92.6C1328.5,1295.4,1300.3,1231.4,1268.1,1179.6z"/>
	<path class="st0" d="M1085.3,1279.8c19.2-10.2,38.5-20.5,57.7-30.6c-0.3,100.9-1.6,201.9-5.6,302.9c-1.7,52.4-14,104.8-37.4,151.9
		c-6.9,0.5-20.7,1.3-27.5,1.7c5.9,18.1,13.4,37.7,1.6,55.3c-40.6,76.8-97.7,145.4-174,189.1H897c44.8-80.8,60.9-172.9,75.3-263
		c35.8-22.9,63.8-56.3,78.5-96.3C1088.6,1492,1089.4,1384,1085.3,1279.8z"/>
	<path class="st0" d="M990.6,1349.9c18.4-17.6,38-34.1,58.5-49.4c1,115.4,14.6,251.3-71.4,342.2
		C982.3,1545.1,994.2,1447.7,990.6,1349.9z"/>
</g>
</svg>
