<?xml version="1.0" encoding="utf-8"?>
<!-- Generator: Adobe Illustrator 26.1.0, SVG Export Plug-In . SVG Version: 6.00 Build 0)  -->
<svg version="1.1" id="Layer_1" xmlns="http://www.w3.org/2000/svg" xmlns:xlink="http://www.w3.org/1999/xlink" x="0px" y="0px"
	 viewBox="0 0 2000 2000" style="enable-background:new 0 0 2000 2000;" xml:space="preserve">
<style type="text/css">
	.st0{fill:#D0A85C;}
</style>
<g>
	<path class="st0" d="M1470.2,1137.1c-27.9,24.9-55,50.8-85.2,73.1c10.5-42.8,43.7-73.4,68.3-108.1c-12.4-40.1-24.1-80.3-35-120.9
		c-31.3,45.2-47.5,107.2-97.3,135.8c24.1-59.7,57.5-115,85.8-172.6c-14.4-63-27.2-126.4-39.5-189.8
		c-34.9,106.9-67.6,214.8-108.9,319.5c-19-16.1-5.3-39.1-0.6-58.1c24.8-75,47.1-150.9,66-227.6c12-50.7,25.4-103.3,14.6-155.6
		c-15.1-78-42.4-154.1-82.8-222.6c-1.8,244.1-54.9,483.5-106.7,720.8c60.4,25.8,101.1,89.4,90.2,155.9
		c-3.9,73.1-69.9,116.2-124.7,152.8c-26.4-59.2-36.7-124-37.1-188.6c-3.5-297.4,1.3-594.8-0.2-892c-1.7-57.8-0.1-116.2-12.4-172.9
		c-9.2-45.3-44.8-95.2-64.9-136.1c-20,40.9-55.6,90.8-64.9,136.1c-12.2,56.7-10.6,115.2-12.4,172.9c-1.5,297.3,3.3,594.7-0.2,892
		c-0.3,64.6-10.6,129.4-37.1,188.6c-54.8-36.6-120.8-79.7-124.7-152.8c-10.9-66.5,29.9-130,90.2-155.9
		c-51.8-237.3-104.9-476.7-106.7-720.8c-40.4,68.5-67.7,144.6-82.8,222.6c-10.8,52.3,2.6,104.9,14.6,155.6
		c18.9,76.7,41.2,152.6,66,227.6c4.7,19,18.4,42-0.6,58.1c-41.3-104.7-74-212.5-108.9-319.5c-12.2,63.4-25,126.7-39.5,189.8
		c28.3,57.6,61.7,112.9,85.8,172.6c-49.9-28.6-66-90.6-97.3-135.8c-10.9,40.6-22.6,80.8-35,120.9c24.6,34.7,57.8,65.3,68.3,108.1
		c-30.2-22.3-57.3-48.2-85.2-73.1c-3.7,20.7-7.5,41.4-10.2,62.3v23.6c4.8,108,71.8,214.3,172.3,257.4
		c41.1,19.4,92.1,10.3,128.7,39.7c-38.3,50.3-151,85.6-151,85.6c4.2,8.6,12.7,25.6,16.9,34.2c76.5-8.9,144.8-49.4,199-102.7
		c-43.6-55.2-109.8-92-139.8-157.7c-20.8-40.7-20.1-88-8.6-131.2c4.6,42.2,5.9,87,28.3,124.7c40.5,71.7,125.8,102.5,168.6,172.1
		c28.7,61.8,14.1,132.2,17.8,198c-2.7,44.3,14.5,101.5-32.6,127.8c11.1,35.1,31.9,73.6,70.6,78.6c2.6,0.3,6.3,0.6,10.2,0.7
		c3.9-0.1,7.6-0.4,10.2-0.7c38.7-5,59.5-43.5,70.6-78.6c-47.1-26.3-29.9-83.5-32.6-127.8c3.8-65.8-10.9-136.2,17.8-198
		c42.8-69.7,128.1-100.4,168.6-172.1c22.3-37.6,23.7-82.5,28.3-124.7c11.6,43.2,12.2,90.5-8.6,131.2
		c-30,65.8-96.2,102.5-139.8,157.7c54.2,53.3,122.5,93.8,199,102.7c4.2-8.6,12.7-25.6,16.9-34.2c0,0-112.7-35.2-151-85.6
		c36.6-29.4,87.6-20.2,128.7-39.7c100.4-43,167.5-149.4,172.3-257.4v-23.6C1477.8,1178.5,1473.9,1157.8,1470.2,1137.1z
		 M1000.2,1904.3c-0.1-0.1-0.2-0.1-0.2-0.2c-0.1,0.1-0.2,0.1-0.2,0.2c-9.3-8-18.8-15.8-28.3-23.3c9.5-12.7,18.9-25.5,28.1-38.3
		c0.1,0.2,0.2,0.3,0.3,0.5c0.1-0.2,0.2-0.3,0.3-0.5c9.3,12.8,18.6,25.6,28.1,38.3C1019,1888.6,1009.5,1896.3,1000.2,1904.3z
		 M1000.6,1560.1l-0.6,3.7l-0.6-3.7c-3.4-38.2-30.9-64.3-58.7-87.3c27.6-59,50.6-121.5,49.6-187.6c0.6-293.2,0.2-586.4,0.5-879.6
		c0.5-46.1-3.8-92.9,7.2-138.1l1.9-8.7l1.9,8.7c11,45.2,6.7,92,7.2,138.1c0.2,293.2-0.1,586.4,0.5,879.6
		c-0.9,66.1,22.1,128.6,49.6,187.6C1031.5,1495.8,1004,1521.9,1000.6,1560.1z"/>
</g>
</svg>
