<?xml version="1.0" encoding="utf-8"?>
<!-- Generator: Adobe Illustrator 26.1.0, SVG Export Plug-In . SVG Version: 6.00 Build 0)  -->
<svg version="1.1" id="Layer_1" xmlns="http://www.w3.org/2000/svg" xmlns:xlink="http://www.w3.org/1999/xlink" x="0px" y="0px"
	 viewBox="0 0 2000 2000" style="enable-background:new 0 0 2000 2000;" xml:space="preserve">
<style type="text/css">
	.st0{fill:#D0A85C;}
</style>
<g>
	<polygon class="st0" points="1141.4,301.1 1115.4,351.6 1143.5,391.6 1168.7,353 1197.5,378.2 1133,462.4 1060.7,362.1 
		1134.4,251.3 1360.9,251.3 1276,114.5 1176.5,144 1180,157.3 1199.6,193.8 1125.3,193.8 1125.3,139.8 1297.1,50 1492.8,301.8 
		1169.4,301.8 	"/>
	<polygon class="st0" points="416.3,521.6 671.6,441.8 820.6,649.2 772.7,721 740.8,1308.7 634.4,502.9 512.1,534.8 517.4,572.1 
		583.9,574.7 607.8,755.6 538.7,670.5 538.2,637.7 507.3,636.3 	"/>
	<polygon class="st0" points="1583.7,521.6 1328.4,441.8 1179.4,649.2 1227.3,721 1259.2,1308.7 1365.6,502.9 1487.9,534.8 
		1482.6,572.1 1416.1,574.7 1392.2,755.6 1461.3,670.5 1461.8,637.7 1492.7,636.3 	"/>
	<polygon class="st0" points="822.3,157.3 802.6,193.8 877,193.8 877,139.8 705.1,50 509.5,301.8 606.9,301.8 621,279.3 
		639.9,301.1 860.8,301.1 886.8,351.6 858.7,391.6 833.5,353 804.7,378.2 869.3,462.4 941.5,362.1 867.9,251.3 641.3,251.3 
		726.2,114.5 825.8,144 	"/>
	<polygon class="st0" points="921.2,222.5 1004.6,171.3 1087.4,224.6 1026.4,323.5 980.8,323.5 	"/>
	<polygon class="st0" points="980.1,405.6 1017.2,405.6 1095.1,522.7 842.6,912 842.6,770.3 957.6,597.1 913.4,514.3 	"/>
	<polygon class="st0" points="1219.2,443.5 1137.9,566.2 1172.9,610.4 1266.9,468.7 	"/>
	<polygon class="st0" points="747.2,435.8 777.4,418.9 865,542.4 839.1,576.7 	"/>
	<polygon class="st0" points="1027.8,713.5 1073.4,645.5 1165.9,776.6 1165.9,928.8 	"/>
	<polygon class="st0" points="999,768.2 954.1,842.5 999,914.8 1043.9,840.4 	"/>
	<polygon class="st0" points="844,1017.2 928.9,898 999.7,996.8 1069.8,907.8 1151.2,1018.6 1151.2,1285.8 1097.2,1118.9 
		1001.8,1950 911.3,1117.5 877.7,1339.1 	"/>
</g>
</svg>
