<?xml version="1.0" encoding="utf-8"?>
<!-- Generator: Adobe Illustrator 26.1.0, SVG Export Plug-In . SVG Version: 6.00 Build 0)  -->
<svg version="1.1" id="Layer_1" xmlns="http://www.w3.org/2000/svg" xmlns:xlink="http://www.w3.org/1999/xlink" x="0px" y="0px"
	 viewBox="0 0 2000 2000" style="enable-background:new 0 0 2000 2000;" xml:space="preserve">
<style type="text/css">
	.st0{fill:#D0A85C;}
</style>
<g>
	<path class="st0" d="M968.5,50h117.3c135.3,9.9,263.7,57.3,382.3,120.7c-36.8-44-82.5-78.4-127.9-112.8
		c102.5,38.8,194,111.5,247,208.2c55.6,101,100.9,209.8,112.6,325.6c-39.1-30.4-71.3-68.7-93.4-113.1
		c-65.3-124-165.9-229.2-287.9-298.4c-168.1-96.9-368.9-108.8-557.4-86C827.8,69.9,897.9,56,968.5,50z"/>
	<path class="st0" d="M858.2,151.3c284.8-52.3,595.4,106,717.1,369.5c9.3,45.6,2.8,93.2,1,139.5c-26.8-21.9-37.2-55.6-52.9-85
		c-92.3-182.2-265-328.4-469.8-361.3c-227.2-47.5-460.5,37.1-640.1,175.1C521.8,253.2,689,176.3,858.2,151.3z"/>
	<path class="st0" d="M625.9,315.9c159.1-72.1,348.6-81.9,509.8-11.3c66.3,30.4,146.2,63.5,158.4,139.9c4.9,29.4,9.3,72.2-24.4,86.6
		c-32.2,18.5-77.1,9.5-105.9-2.5c-192-107.9-429.2-113.7-635.1-43.7c-124.7,47.5-221.2,144-311.6,238.7
		C297.1,543.6,447.1,397,625.9,315.9z"/>
	<path class="st0" d="M1325.2,403.9c89,81.9,182.3,176.7,198.2,302.6c25.1,27.8,52.2,53.8,79.7,79.3c15-67.1,11.6-135.9,13.5-204.1
		c29.4,30.6,80.9,99.4,80.9,99.4c5.9,69.7-0.6,139.8-11,208.7c-10.4,0.4-31.2,1.2-41.6,1.6c-69.4-61-136.8-124.5-211-179.7
		c-67.1-50-145.4-81.5-214.1-129.1c39.4-0.7,96.3,17.4,119.4-26.3C1369.5,507.9,1350.7,449.5,1325.2,403.9z"/>
	<path class="st0" d="M327.4,678.5C507.2,541.9,746.8,503.9,966.3,537c-184.8,28.4-370.4,111.5-486.4,262.8
		c-99.4,133.5-150.4,306.1-127,472.2c18.2,177.3,89.7,352.4,217.9,479.2c72.1,71.4,160.3,122.8,249.7,168.8
		c-127.8-40.1-262.1-82.2-362.8-173.4c-172.8-156.4-310.1-373.3-317.6-611.7c-0.6-19.6-0.8-58.8,0-78.4
		c2.7-64.3,14.2-128.5,34.4-189.8C200.5,787.5,264.7,729.6,327.4,678.5z"/>
	<path class="st0" d="M1781.2,748.3c91,181.9,99.8,397.4,46,591.9c-37.6,135.9-104.7,266.9-210.9,362.3
		c-176.9,158.9-412.8,268.1-653.6,244.2c-64.1-20.1-115.3-67.8-170-105.1c146.2,55.7,310,70.8,461.3,27.1
		c138.2-39.9,270.8-111.3,367.3-220c176-198.2,243.1-490.4,161-743.8C1761.1,854.5,1777.8,800.4,1781.2,748.3z"/>
	<path class="st0" d="M909.2,1054.5c36.5-77.6,112.2-126.9,190.1-156.3c-31.6,56.9-66.5,115.3-71.3,181.9
		c-4.4,48.1,10.7,104,54.3,130.4c36.8,7.6,32.5-36.9,38.8-60.3c28.1,39.6,63.2,82.6,55.1,134.7c-8.1,44.7-34.4,92.9-79.7,108.2
		c-57.2,11.9-115.7-16-158.1-52.9C868.4,1264.4,865.4,1144.3,909.2,1054.5z"/>
	<path class="st0" d="M1120,1092.6c-10.3-35.9,4.4-71.9,10.7-106.9c14.1,94.4,133.8,112.3,151,204.5
		c17.2,55.3-11.9,107.2-47.1,147.8c12.4-50.4,24.6-108.2-8.5-154C1202.9,1140.8,1152.4,1125.9,1120,1092.6z"/>
</g>
</svg>
