<?xml version="1.0" encoding="utf-8"?>
<!-- Generator: Adobe Illustrator 26.1.0, SVG Export Plug-In . SVG Version: 6.00 Build 0)  -->
<svg version="1.1" id="Layer_1" xmlns="http://www.w3.org/2000/svg" xmlns:xlink="http://www.w3.org/1999/xlink" x="0px" y="0px"
	 viewBox="0 0 2000 2000" style="enable-background:new 0 0 2000 2000;" xml:space="preserve">
<style type="text/css">
	.st0{fill:#D0A85C;}
</style>
<path class="st0" d="M1002.5,1950c60.8-117.2,134.3-229.9,199.6-344.9c10-24.2,38.2-25.8,59.5-33.7
	c206.6-60.4,363.5-226.6,470-407.3c-65.4,17.1-134.2,26.7-201.5,14.7c-170.3-25.5-316.2-154.1-373.4-315
	c-40.9-119.2-78.3-239.6-119.1-359c-19.4-49.4,2.1-104.6,33.2-144c40.4-51,105.1-71.6,167.3-80.3C1233.3,167.4,1145,67.8,1033.1,50
	h-57.9C859.5,62.2,766.9,165.2,762.2,280.7c70.5,8.8,145.2,37.3,182.5,101.8c18.6,33.9,34,75,20.6,113.5
	c-39.7,119.5-78.5,239.5-118.6,359c-46.5,136.5-154.3,252.2-290.6,301.6c-91.7,35.7-193.8,34.4-287.7,7.7
	c103.7,175.2,256.8,327.8,451.6,401.6c27,10.2,62.6,10.6,78.1,39.7C860.4,1722.7,933.8,1836.4,1002.5,1950z M1082.8,92
	c-38.9,33.7-60.6,80.5-77.1,128.9c-1.2,3.6-5.8,14.2-5.8,14.2s-4.1-10.2-5.2-13.7c-16-48.7-38.6-95.5-77.3-129.7
	C970.5,70.6,1029.8,69.5,1082.8,92z M860.2,133.4l27.6-21c20.8,17.4,96.7,85.1,110.7,197.8c14.1-112.7,90.2-180.4,111-197.8l31.1,21
	c-112.1,82.1-135,216.8-140.1,258.2C995.4,350.1,972.3,215.5,860.2,133.4z M1000.1,1149.2c37.8,62.9,74.3,126.4,111.9,189.3
	c-7.6,16.2-15.4,32.1-23.2,48.2c-30.8-44.5-89.6-146.2-89.6-146.2c-27.7,45.4-58.5,99.7-84.5,146.2c-9.4-15.7-18.7-31.3-27.3-47.4
	C925.7,1276.4,962.1,1212.4,1000.1,1149.2z M635.8,1258.4c37.7-42.9,72.6-88.2,112.3-129.3c49.3,95.3,100.6,189.6,149.9,285
	c-27.2,42.9-81.8,144.1-85.3,145.2C755.2,1462.7,692.9,1355,635.8,1258.4z M871.3,1663.9c-10.6-21.5-22.2-42.5-34.3-63.1
	c27.7-47.9,56.2-95.5,84.2-143.2c25.8,49.5,53.2,98.1,77.4,148.4C949.6,1607.4,907.8,1633.7,871.3,1663.9z M1000.1,1552.4
	c-21.5-40.4-43.3-80.6-63.6-121.6c21.8-35.3,42.3-71.4,63.6-107.1c21.4,35.8,42.6,72,63.7,108.1
	C1042.7,1472,1021.4,1512.3,1000.1,1552.4z M1128,1663.9c-35.4-31.5-77.9-56.3-126.4-58.1c23.5-50,51.8-97.6,75.7-147.4
	c31.5,45.7,57.2,94.9,85.8,142.4C1150.9,1621.6,1139.2,1642.6,1128,1663.9z M1185.7,1559.3c-3.5-1.1-58.1-102.3-85.3-145.2
	c49.3-95.5,100.6-189.7,149.9-285c39.7,41.2,74.6,86.4,112.3,129.3C1305.5,1355,1243.2,1462.7,1185.7,1559.3z"/>
</svg>
