<?xml version="1.0" encoding="utf-8"?>
<!-- Generator: Adobe Illustrator 26.1.0, SVG Export Plug-In . SVG Version: 6.00 Build 0)  -->
<svg version="1.1" id="Layer_1" xmlns="http://www.w3.org/2000/svg" xmlns:xlink="http://www.w3.org/1999/xlink" x="0px" y="0px"
	 viewBox="0 0 2000 2000" style="enable-background:new 0 0 2000 2000;" xml:space="preserve">
<style type="text/css">
	.st0{fill:#D0A85C;}
</style>
<g>
	<g>
		<path class="st0" d="M719.5,50h15.3c-105.2,54.9-193.9,148.6-214,269.1C399.8,374,311.7,483.2,265.4,605.8
			c-7.1-6.1-21.6-18.3-28.9-24.4c7.6-60.5-14.1-116.5-60.3-156.1C302.9,237.5,503.8,111.2,719.5,50z"/>
		<path class="st0" d="M972.2,300.5c-2.6,214.8-1.7,429.8-1.1,644.7c-16.3-16.3-32.7-32.4-49.3-48.3c7,29.2,15.4,58,23.2,87
			c-11,11.3-21.9,22.6-32.6,33.9c-41.3-21.6-81.3-45.3-121.1-69.5c2.1-60.9,5.9-124.2-19.9-181.2c16.2-17.7,32.2-35.4,48-53.5
			c35.2,36.3,61.5,79,87.9,121.6c-6.6-48.2-18.4-95.3-34-141.3c57.9-74.2,53.6-173.5,37.7-261.1
			C937.6,391.9,956.6,346.7,972.2,300.5z"/>
		<path class="st0" d="M289.1,624c33.2-89,90.6-167.1,163.9-227.1c0.9,67.9-3.9,136.2,4,203.8c45.4,103.8,139.2,179.2,240.1,226.1
			c-0.1,31.2,0.6,62.2,1.7,93.2C561.3,822.8,424.1,724.7,289.1,624z"/>
		<path class="st0" d="M217.7,612.8c12,8.6,24,17.3,36,25.9c-14.4,71.9-22,146.4-7.9,219c25.3,137.1,100.6,259.4,188.9,364.9
			c20.7,27.3,52.7,40.7,83,53.7c63.6,88.2,63.9,199.9,42.9,302.3c-16.9-62.2-32.2-127.5-72.7-179.5
			c-76.3-100.8-187.7-165.9-275-255.8C126.2,1060.3,71,946.5,62.9,826.5v-82.3c2.4-27.4,6-54.9,9.3-82.2
			C125.6,663.7,176.7,647.3,217.7,612.8z"/>
		<path class="st0" d="M279.3,657.4c152.5,101.5,300.4,210,443.8,324c-14.9,29.6-36.2,60.7-25.3,95.6c14.4,55.6,42,108.6,34.9,168.1
			c-26.4-46-56.2-90-87.5-132.9c-25-33.2-33.3-79.3-69.6-103c-31.2-22.7-70.9-23.9-107.6-27.9c-17.3,73-11.3,148.4,0.9,221.7
			c-91.6-94-169.4-207.8-193.1-339C261,795.8,268.3,725.6,279.3,657.4z"/>
		<path class="st0" d="M696.5,778.9c17.7-0.4,35.3-0.9,53-1.3c25.9,52,21.3,110.6,21,166.9c-16.6-10.6-33-21-49.6-31.6
			C721.6,867.1,717.8,820.3,696.5,778.9z"/>
		<path class="st0" d="M730.5,1118.8c-12.9-42.4-16.7-87.2,13.1-123.5c33,29,66.5,57.9,102.6,83.2c22.4-6,44.9-11.9,67.6-17.3
			c21.2,32.2,58.6,60.6,56.5,102.8c0.6,262.1-2.1,524.1-0.1,786.1c-14.4-53.7-37-105.3-72.7-148.5c-4.4-139.1,4.1-278.1,0.9-417.2
			c-7.1-85.8-20.4-179.8-79-247C797.5,1109.2,760.9,1117.5,730.5,1118.8z"/>
		<path class="st0" d="M764.6,1128.5c90.3,49.6,99.8,160.6,97.2,252.5c-24.3-57.5-61.6-107.5-95.6-159.2
			C762.8,1190.8,764.3,1159.5,764.6,1128.5z"/>
	</g>
	<g>
		<path class="st0" d="M1280.5,50h-15.3c105.2,54.9,193.9,148.6,214,269.1c121.1,54.9,209.1,164.1,255.4,286.7
			c7.1-6.1,21.6-18.3,28.9-24.4c-7.6-60.5,14.1-116.5,60.3-156.1C1697.1,237.5,1496.2,111.2,1280.5,50z"/>
		<path class="st0" d="M1027.8,300.5c2.6,214.8,1.7,429.8,1.1,644.7c16.3-16.3,32.7-32.4,49.3-48.3c-7,29.2-15.4,58-23.2,87
			c11,11.3,21.9,22.6,32.6,33.9c41.3-21.6,81.3-45.3,121.1-69.5c-2.1-60.9-5.9-124.2,19.9-181.2c-16.2-17.7-32.2-35.4-48-53.5
			c-35.2,36.3-61.5,79-87.9,121.6c6.6-48.2,18.4-95.3,34-141.3c-57.9-74.2-53.6-173.5-37.7-261.1
			C1062.4,391.9,1043.4,346.7,1027.8,300.5z"/>
		<path class="st0" d="M1710.9,624c-33.2-89-90.6-167.1-163.9-227.1c-0.9,67.9,3.9,136.2-4,203.8
			c-45.4,103.8-139.2,179.2-240.1,226.1c0.1,31.2-0.6,62.2-1.7,93.2C1438.7,822.8,1575.9,724.7,1710.9,624z"/>
		<path class="st0" d="M1782.3,612.8c-12,8.6-24,17.3-36,25.9c14.4,71.9,22,146.4,7.9,219c-25.3,137.1-100.6,259.4-188.9,364.9
			c-20.7,27.3-52.7,40.7-83,53.7c-63.6,88.2-63.9,199.9-42.9,302.3c16.9-62.2,32.2-127.5,72.7-179.5
			c76.3-100.8,187.7-165.9,275-255.8c86.8-82.9,141.9-196.7,150.1-316.7v-82.3c-2.4-27.4-6-54.9-9.3-82.2
			C1874.4,663.7,1823.3,647.3,1782.3,612.8z"/>
		<path class="st0" d="M1720.7,657.4c-152.5,101.5-300.4,210-443.8,324c14.9,29.6,36.2,60.7,25.3,95.6
			c-14.4,55.6-42,108.6-34.9,168.1c26.4-46,56.2-90,87.5-132.9c25-33.2,33.3-79.3,69.6-103c31.2-22.7,70.9-23.9,107.6-27.9
			c17.3,73,11.3,148.4-0.9,221.7c91.6-94,169.4-207.8,193.1-339C1739,795.8,1731.7,725.6,1720.7,657.4z"/>
		<path class="st0" d="M1303.5,778.9c-17.7-0.4-35.3-0.9-53-1.3c-25.9,52-21.3,110.6-21,166.9c16.6-10.6,33-21,49.6-31.6
			C1278.4,867.1,1282.2,820.3,1303.5,778.9z"/>
		<path class="st0" d="M1269.5,1118.8c12.9-42.4,16.7-87.2-13.1-123.5c-33,29-66.5,57.9-102.6,83.2c-22.4-6-44.9-11.9-67.6-17.3
			c-21.2,32.2-58.6,60.6-56.5,102.8c-0.6,262.1,2.1,524.1,0.1,786.1c14.4-53.7,37-105.3,72.7-148.5c4.4-139.1-4.1-278.1-0.9-417.2
			c7.1-85.8,20.4-179.8,79-247C1202.5,1109.2,1239.1,1117.5,1269.5,1118.8z"/>
		<path class="st0" d="M1235.4,1128.5c-90.3,49.6-99.8,160.6-97.2,252.5c24.3-57.5,61.6-107.5,95.6-159.2
			C1237.2,1190.8,1235.7,1159.5,1235.4,1128.5z"/>
	</g>
</g>
</svg>
