<?xml version="1.0" encoding="utf-8"?>
<!-- Generator: Adobe Illustrator 26.1.0, SVG Export Plug-In . SVG Version: 6.00 Build 0)  -->
<svg version="1.1" id="Layer_1" xmlns="http://www.w3.org/2000/svg" xmlns:xlink="http://www.w3.org/1999/xlink" x="0px" y="0px"
	 viewBox="0 0 2000 2000" style="enable-background:new 0 0 2000 2000;" xml:space="preserve">
<style type="text/css">
	.st0{fill:#D0A85C;}
</style>
<g>
	<path class="st0" d="M685.9,550.9c-105.7-155.4-71-390.2,83.4-500.9c20.8,22.8,40.6,46.4,60.3,70.1
		C767,179.8,717.8,260.2,722.3,349.7c-1.3,118.7,84.3,221.9,192.1,263.5c0,408.7-0.3,817.4-1.8,1226
		c-33.5,32.2-61.2,69.5-82.3,110.8c-21.4-4.6-42.7-9.1-63.9-13.8c0.9-57.9-17.1-125.5-77.9-147c-59-29.2-119.2,7.5-161.8,47.3
		c-28.9-19.3-57.8-38.5-86.4-58.1c19.2-52.5,32.2-118.4-12.6-162.3c-42.2-52.2-115-43.6-171-22.3c-19.8-28.9-39.4-57.9-58.7-87
		c40.1-41.5,75.5-100.2,49.4-158.8c-21.1-62.6-90-80.4-149-81.6c-7-33.1-14.2-66-19.6-99.4v-4.6c57-23.7,114.7-72,104.8-140.7
		c-1.9-60.3-56.3-95.1-104.8-118.7v-8.2c5.2-31.9,12.3-63.3,18.7-95.1c59.7-0.9,128.8-20.7,149.7-83.7
		c25.8-58.1-9.9-115.7-50.3-155.9c19.3-30.5,39.4-60.6,59.7-90.4c50.3,22,104.8,22.3,155.4,1.2c11.1,37.7,22.9,75.3,35,112.7
		C330,732.2,271,926.1,294.2,1114.8c23.4,221.7,158.7,428,352.9,537.8c20.4,9.9,45.7,26.9,65.4,6.1c10.5-126.7-1-254.4,4-381.3
		c-2.2-49.7,46.7-77,67.2-117.2c7.3-24.9,4.9-51.5,5.8-77.1c-1.3-141.5-0.7-282.8-1.2-424.3C750.9,626.4,713,593.2,685.9,550.9z"/>
	<path class="st0" d="M965.1,613.1c22.6,0,45.2,0,67.8,0c-0.7,403.5-1.5,806.9-1.2,1210.4c-16.3,0.1-48.8,0.3-65.1,0.3
		C966.9,1420.3,966,1016.7,965.1,613.1z"/>
	<path class="st0" d="M470.9,631.5c8.8,13.5,17.5,27.1,26,40.7c-91.3,131.6-133.1,297.2-107,456c23.5,162.7,117.2,311.4,249.1,408.6
		c0.1,13.6,0.4,40.9,0.4,54.5c-147.9-99.9-257.5-256.9-289.5-433.4C313.2,975.5,360.4,780.4,470.9,631.5z"/>
	<g>
		<path class="st0" d="M1314.1,550.9c105.7-155.4,71-390.2-83.4-500.9c-20.8,22.8-40.6,46.4-60.3,70.1
			c62.6,59.7,111.8,140.1,107.3,229.7c1.3,118.7-84.3,221.9-192.1,263.5c0,408.7,0.3,817.4,1.8,1226c33.5,32.2,61.2,69.5,82.3,110.8
			c21.4-4.6,42.7-9.1,63.9-13.8c-0.9-57.9,17.1-125.5,77.9-147c59-29.2,119.2,7.5,161.8,47.3c28.9-19.3,57.8-38.5,86.4-58.1
			c-19.2-52.5-32.2-118.4,12.6-162.3c42.2-52.2,115-43.6,171-22.3c19.8-28.9,39.4-57.9,58.7-87c-40.1-41.5-75.5-100.2-49.4-158.8
			c21.1-62.6,90-80.4,149-81.6c7-33.1,14.2-66,19.6-99.4v-4.6c-57-23.7-114.7-72-104.8-140.7c1.9-60.3,56.3-95.1,104.8-118.7v-8.2
			c-5.2-31.9-12.3-63.3-18.7-95.1c-59.7-0.9-128.8-20.7-149.7-83.7c-25.8-58.1,9.9-115.7,50.3-155.9c-19.3-30.5-39.4-60.6-59.7-90.4
			c-50.3,22-104.8,22.3-155.4,1.2c-11.1,37.7-22.9,75.3-35,112.7c117.1,148.7,176.1,342.5,152.9,531.2
			c-23.4,221.7-158.7,428-352.9,537.8c-20.4,9.9-45.7,26.9-65.4,6.1c-10.5-126.7,1-254.4-4-381.3c2.2-49.7-46.7-77-67.2-117.2
			c-7.3-24.9-4.9-51.5-5.8-77.1c1.3-141.5,0.7-282.8,1.2-424.3C1249.1,626.4,1287,593.2,1314.1,550.9z"/>
		<path class="st0" d="M1529.1,631.5c-8.8,13.5-17.5,27.1-26,40.7c91.3,131.6,133.1,297.2,107,456
			c-23.5,162.7-117.2,311.4-249.1,408.6c-0.1,13.6-0.4,40.9-0.4,54.5c147.9-99.9,257.5-256.9,289.5-433.4
			C1686.8,975.5,1639.6,780.4,1529.1,631.5z"/>
	</g>
	<g>
		<path class="st0" d="M898.3,365.1c-1.3-6.5-2-13.2-2-20c0-56.7,46-102.7,102.7-102.7c32.7,0,61.7,15.3,80.5,39.1l77.3-35.7
			c-33-52.4-91.3-87.3-157.8-87.3c-103,0-186.6,83.5-186.6,186.6c0,19.4,3,38.1,8.5,55.7L898.3,365.1z"/>
		<path class="st0" d="M1099.9,326.5c1.1,6,1.8,12.3,1.8,18.6c0,56.7-46,102.7-102.7,102.7c-32.2,0-60.8-14.8-79.7-37.9L842,445.5
			c33.2,51.7,91,86.1,157,86.1c103,0,186.6-83.5,186.6-186.6c0-18.9-2.9-37.2-8.1-54.4L1099.9,326.5z"/>
	</g>
</g>
</svg>
