<?xml version="1.0" encoding="utf-8"?>
<!-- Generator: Adobe Illustrator 26.1.0, SVG Export Plug-In . SVG Version: 6.00 Build 0)  -->
<svg version="1.1" id="Layer_1" xmlns="http://www.w3.org/2000/svg" xmlns:xlink="http://www.w3.org/1999/xlink" x="0px" y="0px"
	 viewBox="0 0 2000 2000" style="enable-background:new 0 0 2000 2000;" xml:space="preserve">
<style type="text/css">
	.st0{fill:#D0A85C;}
</style>
<g>
	<path class="st0" d="M1020.5,50h4.3c12.1,46.3,29.2,93.2,61.9,129.2c38.4,44.2,95,73,120.3,128c27.7,59.1,39.5,123.9,52,187.4
		c-25.6-41.4-50.4-86.4-93.2-112.4c-37.9-24.4-87.6-37.4-108.7-81.2C1019.1,223.8,1015,134.4,1020.5,50z"/>
	<path class="st0" d="M898,121.7c12.3,39.7,19.8,84.9-1.6,123c-26.5,44.7-71.6,74.2-115.6,99.6C829.2,275.4,874.2,203.3,898,121.7z"
		/>
	<path class="st0" d="M702.7,432.3c82.5-21,150-77.6,199-145.5C883,340.7,858.6,395.2,813.3,432c-125.1,99.1-213.6,234.4-296.1,369
		c-2.5-101.8,36.8-198.3,83.6-286.6c29-56.7,76.1-100.6,121.7-143.7C716.2,391.4,709.4,411.8,702.7,432.3z"/>
	<g>
		<path class="st0" d="M908,525c38.7-46.8,58.1-105.6,95.3-153.4c11.8,34.7,20.2,70.5,34.1,104.3c71.6,145.6,232,225.7,291.5,378.6
			c35.3,82.8,44.5,180.3,7.2,264c-31.1,69.4-68.9,139.1-129.9,187c-61.5,46.9-133,87-209.9,98.9c-97.3-23.1-188.5-88.6-232.5-179.6
			c20.6-74.3,46.4-155.8,112.5-202.3c71.2-52,178.1-45.7,240.1,18.1c43.8,47.2,85.6,104.6,86.6,171.6
			c-24.4,72.8-104.8,109.4-176.2,117.7c54-24.6,118-55.2,131.6-119.1c-2-62.2-59.2-100.2-110.8-122.1c-2.2-18.9-4.6-37.9-7-56.7
			c-6.4,16.6-12.8,33.3-19.1,50.1c-66.6-2.9-138.6,13.1-181.5,68.3c-51,41.3-25.9,123.8,24.7,154c104.9,68,248.9,44.4,340.4-35.2
			c47-54.3,73-127.9,70.3-199.5c-17.2-152.6-160.1-292.8-318.4-278.2c-169.5,20.6-290.8,190.6-286.6,355.9
			c-37.9-39.3-82.4-79.8-90.5-136.9c-9.8-63.7-17.1-132.5,11.3-192.6c37.9-84.6,84.9-169.2,161.7-224.5c-13.1,34.6-32.6,72.8-5,106
			c-14.7,37.6-26.5,76.2-35.3,115.6c22-48.5,42.4-98.1,72.6-142.3C820.1,618.4,867.7,574.6,908,525z M809.9,1262.8
			c-1.5-19.5-6.3-39.9-15.8-57C777.6,1217.2,791.9,1258.7,809.9,1262.8z"/>
	</g>
	<path class="st0" d="M1142.9,435.9c47.8,51.5,98.6,100.1,151.8,145.9c67.9,61.2,122.3,138.3,151.6,225.1
		c27.2,81.4,14.2,168.3,2.9,251.3c-4.8,29.5-0.6,59.3,5.4,88.3c20.5-26.3,34.3-56.7,43.6-88.6v66.1c-6.8,43.1-20.7,85.9-47.7,120.9
		c-28.6,39.6-71,76.4-69.2,129.7c4,69-56,118.2-114.3,141.5c8.1-26.1,16.5-52,24.6-78.2c-25.9,32.2-48.5,74-92.6,83.3
		c-43.3,11.3-83.6,30.7-121.6,54.2c13.7,36.9,47.2,55.3,79.1,74.1c7,16.6,10.2,34.8,14.8,52.4c-16.8,3.2-33.2,7.3-49.4,12.4
		c-8.8,47-8.3,95.3-18.1,142.3c-29.7-29.4-67.4-53.6-55.1-109.1c-35.8,1.5-71.5,0.2-107.1-3.5c5.7,17.7,10.3,35.8,13.6,54
		c-22.4,19.6-49.9,31.8-75.5,46.4c-4.3-40.7-6.1-82.3,7-121.7c-2.2-12.9-4.7-25.8-7-38.7c-22.6,0-45.1,0.7-67.6,2
		c0.4-15.2,0.8-30.5,1.3-45.7c28-10.1,57.7-17.8,82.6-34.6c22.5-12.9,17.6-48.2-3.3-59.8c-37.6-22.4-85.6-25.6-117.8-57.1
		c-37.7-36.6-58-86.2-87.3-128.9c17.6,52.6,43.6,102.1,56.5,156.3c-43.3-18.6-89.2-40.6-114.3-82.5c-26.1-41.3-21.3-92.6-38.6-136.9
		c-21.3-43.4-71.3-64.7-89.6-110.4v-23.8c8.1-34.7,10.4-70.2,4.9-105.5c-6.7-39.4,7.7-77.4,19.5-114.3c15.2,97.1,50.1,194.2,117,268
		c55.9,61.2,110.4,126.3,181.8,170.2c56.2,38.8,125.3,56.2,175.7,103.4c19.5-18.8,40.2-36.6,65.5-47
		c80.9-36.8,169.2-67.9,230.3-135.5c49.6-55.9,90.5-123.6,99.5-199c8.8-73.9,22.2-150.9-0.2-223.8c-33.6-101-85-197.3-158.7-274.9
		C1191.2,557.5,1159.5,499,1142.9,435.9z"/>
	<path class="st0" d="M1341.4,578.4c49.1,23.6,98,54.7,124.4,104.2c34.3,59.9,28.5,132.6,13.2,197.4c-16.2-61-26.4-124.3-54.9-181.1
		C1402.9,654.6,1371,617.1,1341.4,578.4z"/>
	<path class="st0" d="M963.2,1177.6c31.5-26.1,85.1,5.2,75.5,45.6c-3,30.4-40.9,50.4-67.5,34.9
		C940.2,1244.6,935.9,1197.2,963.2,1177.6z"/>
	<path class="st0" d="M801.1,1720.4c-23.6-30-40.9-64.5-49.1-101.8c11,0.9,32.9,2.7,43.8,3.6C796.7,1655,798.7,1687.7,801.1,1720.4z
		"/>
	<path class="st0" d="M1181.5,1634.1c16.2-6.1,32.4-12,48.5-17.7c2.7,21.6,5.7,43,9.1,64.4c-15.6,21-32.4,41-49.9,60.4
		C1181.2,1705.9,1176.3,1669.9,1181.5,1634.1z"/>
	<path class="st0" d="M907.6,1878c1.1,1.1,15.1-2.8,17.1-3.2c6-1,12-1.9,18-2.7c12-1.6,24.1-2.7,36.2-3.4
		c24.2-1.4,48.5-1.2,72.6,0.8c8.1,0.7,18,0.4,25.6,2.9c-1.4,6.9-4.5,14.7-6.8,21.5c-3.7,10.9-8.7,21.5-15.7,30.7
		c-7.4,9.7-17.2,17.9-28.7,22c-12.4,4.4-25.8,3.9-38.6,2.3c-12.4-1.5-23.7-4.5-33.9-11.9c-8.9-6.5-16.2-14.8-22.7-23.6
		c-4.4-5.9-8.4-12.1-12.3-18.3C914.7,1889.2,912.4,1883,907.6,1878z"/>
</g>
</svg>
