<?xml version="1.0" encoding="utf-8"?>
<!-- Generator: Adobe Illustrator 26.1.0, SVG Export Plug-In . SVG Version: 6.00 Build 0)  -->
<svg version="1.1" id="Layer_1" xmlns="http://www.w3.org/2000/svg" xmlns:xlink="http://www.w3.org/1999/xlink" x="0px" y="0px"
	 viewBox="0 0 2000 2000" style="enable-background:new 0 0 2000 2000;" xml:space="preserve">
<style type="text/css">
	.st0{fill:#D0A85C;}
</style>
<g>
	<g>
		<path class="st0" d="M960.3,116.3h78.4c127.3,17.3,240.6,116.2,264.1,244.1c32.1,144.7-61,300.9-201.3,345.6
			c-142.9,52.8-317.4-18.6-380.8-157.3c-51.9-104.6-33.8-238.4,43.5-325.8C813.4,164,885.8,129.4,960.3,116.3z M928.9,168.5
			c-92.1,24.3-167.7,102.3-187.7,195.6c-27.6,114,35.9,239.2,141.1,288.8c90.1,45.1,205.5,33.1,283.8-30.6
			c86.4-66.6,122.9-190.8,82.5-292.7C1204.1,203.8,1056.3,131,928.9,168.5z"/>
	</g>
	<path class="st0" d="M926.7,209.8c105.8-38.3,234.4,15.8,279.1,119.4c36.5,78.4,19.8,177.6-40.2,239.9
		c-64.3,70.8-175.2,91.8-261.4,50.6c-81.3-36.6-136-125.3-128.7-214.5C779.5,317.1,843.4,237.1,926.7,209.8z"/>
	<path class="st0" d="M578.5,499.2c-5.9-83.8,5.2-180.6,65.7-243.7c-30.3,77.5-43.1,161.6-27.1,244
		C607.4,499.5,588.2,499.3,578.5,499.2z"/>
	<path class="st0" d="M1355.8,255.6c60.8,62.9,71.5,159.8,65.7,243.5c-9.7,0.2-29.1,0.4-38.7,0.7
		C1398.8,417.3,1386.2,333.1,1355.8,255.6z"/>
	<path class="st0" d="M418.1,464.1c48.1-16,93.7-39.8,132.4-72.7c-4.5,35.8-3.6,71.8,0.7,107.5c-70.1,0.4-140.4,1.4-210.4-0.3
		C362,478.6,392,474.7,418.1,464.1z"/>
	<path class="st0" d="M1449.5,391.6C1509.4,448,1592.8,461,1663,498c-71.4,2.8-142.8,1.3-214.2,0.8
		C1453.1,463.2,1454,427.2,1449.5,391.6z"/>
	<path class="st0" d="M50,569.3c154.4-0.7,309,0.6,463.4-0.6c24,1.3,56-7.5,67.1,21.1c8.5,24.4,20.3,47.5,33.4,69.9
		c-33.4,19.8-64.5,43.9-100.1,59.9c-73.2-32.3-149-72.4-231.9-63.3c-30.4,1.3-53.6,22.6-78.5,37.3c-13.5-7.8-25.7-17.3-38.1-26.6
		c-3.8-3.1-11-9.4-14.7-12.5c-8.3-6.1-16-12.9-23.1-20.4c-14.5-10.7-28.9-21.3-43-32.5c-11.7-9.6-23.3-19.1-34.5-29.3V569.3z"/>
	<path class="st0" d="M601.4,568.5c13.7,0.6,27.4,1.2,41,2c8.7,18.2,18,36.1,27.5,54c-7.4,4.9-22.1,14.7-29.5,19.6
		C625.7,619.8,613,594.5,601.4,568.5z"/>
	<path class="st0" d="M1357.9,570.2c13.6-0.6,27.1-1,40.7-1.4c-11.6,26-24.5,51.4-39.5,75.6c-7.3-5-21.8-15.1-28.9-20.2
		C1339.7,606.3,1349.1,588.4,1357.9,570.2z"/>
	<path class="st0" d="M1431.1,569.1c173,0.1,345.9,0.2,518.9,0v2.9c-49.9,42.9-102.2,82.8-153.1,124.4c-23-18.6-47.7-38.3-78.5-39.9
		c-82.8-9.3-158.7,30.9-232,63c-35.8-15.4-66.6-40.1-100.2-59.7C1402.8,630.4,1417.7,600.1,1431.1,569.1z"/>
	<path class="st0" d="M673.4,689.7c9.3-7.6,18.7-15.4,27.9-23c21.1,22.4,44.3,42.9,68.5,61.9c-7.5,9.7-15,19.3-22.4,29.1
		C721.3,736.5,696.7,713.8,673.4,689.7z"/>
	<path class="st0" d="M1230.4,728.5c24.2-19.1,47.3-39.5,68.5-62c9.2,7.8,18.2,15.8,27.4,23.6c-23.3,24-47.9,46.6-73.9,67.6
		C1245,748,1237.7,738.2,1230.4,728.5z"/>
	<path class="st0" d="M583.3,765c22-19.6,44.5-38.4,68.2-55.9c23.8,26.7,50,50.9,78.3,72.7c-15.4,20.4-30.6,40.9-45.8,61.3
		C651.7,815.4,618.2,789.3,583.3,765z"/>
	<path class="st0" d="M1348.4,709.3c23.1,17.3,45.4,35.7,68,53.7c-33.2,27-68,52.1-100.5,80.1c-15.2-20.3-30.5-40.8-45.7-61.1
		C1298.4,760.1,1324.8,736,1348.4,709.3z"/>
	<path class="st0" d="M813.4,756.2c25.1,11.9,50.7,22.6,76.7,32.6c-2.5,8.2-7.7,24.4-10.4,32.6c-28.6-9.3-56.6-20.3-83.7-33.1
		C801.7,777.5,807.6,766.9,813.4,756.2z"/>
	<path class="st0" d="M1109.8,788.8c26-9.9,51.6-20.7,76.8-32.6c5.7,10.7,11.6,21.4,17.5,32.1c-27.2,12.7-55.1,23.8-83.5,33.2
		C1117.9,813.4,1112.5,797,1109.8,788.8z"/>
	<path class="st0" d="M934.8,834.2c2.1-11.5,4.1-23.1,6.2-34.6c39.4,3.1,78.9,3.1,118.3,0.1c1.9,11.5,3.8,23,5.7,34.5
		C1021.8,839.1,978.1,839.1,934.8,834.2z"/>
	<path class="st0" d="M780.8,814.3c29.1,13.8,58.8,26.1,89.4,35.9c-13,47.6-27.7,94.8-42.1,141.9c-30.4-32.8-58.8-67.6-90.6-99.1
		C752,866.9,766.6,840.6,780.8,814.3z"/>
	<path class="st0" d="M1129.9,850c30.5-9.5,60.2-21.9,88.9-35.9c14.6,26.4,29.2,52.8,43.6,79.2c-32,31.4-60.3,66.1-90.5,99.1
		C1157.6,945,1142.7,897.8,1129.9,850z"/>
	<path class="st0" d="M929.9,864.7c46.5,3.6,93.3,3.8,139.8,0.1c10.3,74.9,25.3,149.2,33.6,224.5c-13.3,48.2-43.4,91.5-48.6,142.4
		c-8.9,38.9,2.1,78.3,22.2,111.8c-3.4,36.8-9.1,73.3-14.7,109.9c-17.1,117.6-33.9,235.4-51.7,352.9c-4,25.6-4.4,51.6-3.8,77.4h-12.5
		c0.7-94-26.2-185.8-32.9-279.5l-2.9-1.3c-7.4-86.7-30.5-172.3-32.6-259.2c20.3-44.1,30-93.2,13.6-140.5
		c-8.7-39.9-32.8-74.3-42.8-113.6c6.6-65.3,19.9-129.8,29.2-194.7C926.9,887.3,928.9,872.3,929.9,864.7z"/>
</g>
</svg>
