<?xml version="1.0" encoding="utf-8"?>
<!-- Generator: Adobe Illustrator 26.1.0, SVG Export Plug-In . SVG Version: 6.00 Build 0)  -->
<svg version="1.1" id="Layer_1" xmlns="http://www.w3.org/2000/svg" xmlns:xlink="http://www.w3.org/1999/xlink" x="0px" y="0px"
	 viewBox="0 0 2000 2000" style="enable-background:new 0 0 2000 2000;" xml:space="preserve">
<style type="text/css">
	.st0{fill:#D0A85C;}
</style>
<g>
	<g>
		<path class="st0" d="M837.4,153.3h70.1c111.6,10.4,218.7,58.9,300.3,135.8c22.1,21.7,48.8,42,81.4,40.9
			c5.9,10,11.6,20.1,17.3,30.2c-55.8,19.9-111.5,40.1-167.4,59.7c-64.4-76.8-161.9-125.7-262.7-126.4
			c-106.2-3.4-211.9,46.3-278.5,128.9C542,490.1,513.7,579.7,520,667.3c5.5,91.5,50.5,178.3,118.4,239.2c2.7-10.7,5.3-21.3,7.9-32
			c-66.9-65.7-104.5-160.4-97-254.2c5.8-91.6,53.7-179.3,127.4-233.9c69.3-52.8,160.8-75,246.6-60.1
			c96.4,15.5,183.6,78.3,229.4,164.5c44.5,81.4,50.3,182.4,16.5,268.7c-18.8,49.1-50.7,92.3-89.8,127.2c0.7,11.7,1.3,23.4,2,35.1
			c71.3-55.5,121.7-138.1,134.1-227.9c11.9-78.1-4-159.7-43.7-227.9c70.9-25.3,142.4-49.2,213.2-74.9c7.6-25.7,27-48.8,54.3-54.1
			c21.7-5.9,43,3.4,61.3,14.3c28.5-10.7,57.6-20.2,86.1-31.3c-0.4-42.3,19.5-84.4,54.6-108.7c47-34.9,118.3-30.7,160,10.6
			c9.1,7.7,16.3,19.9,29.2,21.1c40.4,6.7,81,1.6,119.4-10.4l0,0c-39.6,15.1-79.3,39.2-106.3,73.1c4.5,61.7-39.5,122.7-100.6,135.1
			c-50.1,12.1-103.2-11.1-133.4-51.7c-28.7,10.4-57.7,20.5-86.4,31.1c-8.1,22.4-23.4,43.8-47.3,50.9c-22.6,8.7-46.7,0.7-66.3-11.2
			c-54.6,18.7-109.2,37.5-163.5,57.2c32.8,97.1,25.7,206.9-19.6,298.9c-37.9,79.1-103.4,143.2-181,183.4
			c-4.3-46.7-4.7-93.5-8.2-140.2c58.2-47.1,98.6-116.9,104.3-192.1c7.4-78.4-21.5-159.3-77.1-215c-57.9-60.1-144.5-90.7-227.2-80.4
			c-69.3,7.8-134.5,43.7-178.7,97.5C610,527,587.3,605.9,598.4,680.7c8.7,66.7,44.5,128.1,95,171.9c-10.7,43.1-20.4,86.5-30.1,129.7
			C584.1,934.2,522.3,857.8,493,769.8c-32-93-27.2-197.9,12.9-287.7c43.5-99.1,129.4-178.5,231.6-214.2
			c100.5-35.7,215.5-28.6,310.5,20.3c41.1,20.5,77.7,49,110,81.5c13-4.7,26.1-9.5,39.1-14.3c-61.6-68.6-144-118.7-234.3-138.1
			c-102.4-22.9-213-6.9-304.6,44.3C562.9,314,488.7,403.4,454.9,506.9c-30.6,91.8-28.8,193.6,3.4,284.7
			c-33.7,11.7-67.5,23.2-101.1,35c-1.3,47.8-39.1,92.7-87.9,95.9c-33.1,4.1-63.1-14.5-84.7-37.7c-0.8-0.9-9.1,0.5-10.6,0.5
			c-11.2,0.5-22.8,0.6-34.2,0.8c-16.3,0.2-69.4,8.1-89.7,13.1l0,0c40.9-14.3,76.3-50.1,109.3-77.4c8.8-6.5,8.6-18.5,12.5-27.8
			c12.5-45.3,63.5-74.8,109.1-63.9c19.3,3.5,35.4,15.6,49.9,28.1c19.5-6.4,38.9-13.3,58-20.8c-32.3-153.4,17-320.2,125.9-432.7
			C598.5,216.3,715.9,161.2,837.4,153.3z M1693.5,231.4c-38.5,9.5-67.9,48-64.8,87.9c1.1,45.4,42.3,85.3,88.1,83.3
			c49.3,0.8,92.5-47.5,84.7-96.5C1797.3,255.5,1742.7,216.8,1693.5,231.4z M1438.2,381.4c-15.5,9.7-16.9,34.5-1.9,45.3
			c14.5,13.9,39.6,5.1,45.5-13.2C1490.8,389,1458.9,365.4,1438.2,381.4z M232.9,770.3c-41.8,20.5-43.2,86.3-2.5,108.7
			c37.9,25.7,93.4-7.4,91.9-52.1C325.9,782.3,272,746.7,232.9,770.3z"/>
	</g>
	<path class="st0" d="M781.3,631.6c46.5-35.6,94.8-69,142.4-103.1c0.9,81.6,0.5,163.2,1.9,244.7c11.3-31.5,20.3-63.7,30.9-95.5
		c10.3,7.9,20.5,15.8,30.7,23.8c12.8,310.9,25.1,621.9,38.9,932.8c-29.1,33.9-58.1,67.9-87.1,101.9c-30,37.1-64.7,70.5-90.9,110.5
		h-2.7c2.3-191.4,2.2-382.9,2.6-574.3l-5.3-3.6l-5.6,3.8c-14.6,85.3-28.5,170.8-42.2,256.3c-51.5-80.3-99.9-162.5-150.6-243.3
		c41.8-203.1,84.3-406,126.3-609.1C774.1,661.5,775.8,646,781.3,631.6z"/>
	<path class="st0" d="M1046.7,1167.4c12.8-5.7,25.5-11.6,38.3-17.7c19.1,61.5,36.9,123.4,56.7,184.7c-26.3,30.8-47.7,66.9-78.2,93.4
		C1058.7,1340.9,1052.2,1254.2,1046.7,1167.4z"/>
</g>
</svg>
