<?xml version="1.0" encoding="utf-8"?>
<!-- Generator: Adobe Illustrator 26.1.0, SVG Export Plug-In . SVG Version: 6.00 Build 0)  -->
<svg version="1.1" id="Layer_1" xmlns="http://www.w3.org/2000/svg" xmlns:xlink="http://www.w3.org/1999/xlink" x="0px" y="0px"
	 viewBox="0 0 2000 2000" style="enable-background:new 0 0 2000 2000;" xml:space="preserve">
<style type="text/css">
	.st0{fill:#D0A85C;}
</style>
<g>
	<circle class="st0" cx="178.3" cy="1521" r="16.4"/>
	<circle class="st0" cx="461" cy="1511.7" r="65.2"/>
	<circle class="st0" cx="174.7" cy="1466" r="13.7"/>
	<circle class="st0" cx="1649.1" cy="1284.8" r="16.4"/>
	<circle class="st0" cx="1599.5" cy="1313.3" r="13.7"/>
	<circle class="st0" cx="709.7" cy="129.4" r="16.4"/>
	<circle class="st0" cx="759.8" cy="156.3" r="13.7"/>
	<path class="st0" d="M317.4,79.7c108.8-43.3,237-39.9,341.2,14.7c4.7,2.5,7,7.9,5.8,13.1c-1.5,6.2-3.8,12-11.4,11.8
		c-83.3-8.7-173.4-12.5-249.4,28.8c-97.1,52.2-155.1,169-135.3,277.9c12.6,63.9,45.6,124.8,96.2,166.6
		C419.3,638.3,481.4,674.7,535,722c37.2,33.2,69.1,74.8,81.5,123.8c8.3,31.1,8.1,63.7,4,95.4c-12-8.3-15.1-23.5-22.6-35.2
		c-38.5-65.8-105.8-108.7-175-136.7c-103.9-43.8-203.5-111.1-259.6-211.5C128.5,494,105.7,420.7,113,347.3
		C125.9,229.7,208.9,124.8,317.4,79.7z"/>
	<path class="st0" d="M549.9,318.7c40-16.1,88.8,18.5,86.3,61.7c1.2,35-30.7,66.3-65.6,64.7c-34.7,0.8-65.4-30.6-64.5-65.3
		C506,352.9,524.3,327.1,549.9,318.7z"/>
	<path class="st0" d="M1223.4,727.4c88.5-67.4,192.4-123.2,305.9-126.7c81.1-1.6,166.4,15.3,231.9,65.5
		c75.2,57,120.5,149,126.4,242.5c5.8,79.7-20.8,158.7-61.9,226c-31.1,49.6-72.6,93.2-122.2,124.6c-11.1,10.4-28.7-7.2-18.5-18.4
		c39.9-53.7,77.1-111.8,92.4-177.8c19.1-80.6-5.4-168.4-59.1-230.7c-47.6-57.1-120.5-90.2-194.5-91.8c-75-6.2-143,30.7-209.4,59.9
		c-62.1,27.7-127.1,57.2-196.7,53.6c-47.8-3.1-96.5-21-130.9-55.1C1071.8,809.9,1156.4,778.6,1223.4,727.4z"/>
	<g>
		<path class="st0" d="M555.2,695.7c101.1-20.5,211-7.5,300.3,45.8c68.9,39.9,120.6,108,198.8,131.6c57.9,19.2,120.2,11.4,177.7-5.2
			c-33.2,86.3-85.2,169.6-163.1,222.1c-73.1,50.1-168.6,57.6-236,117.3c-48.2,41.1-73.5,101.1-90.2,160.7
			c-44.2-53.9-74.7-117.5-100.7-181.7c-17.6-43.1-12.5-90.9-3.4-135.4c12.5-64.1,21.8-130.4,11.8-195.4
			C639.7,792.3,600,739.3,555.2,695.7z M749,824.6c9.7,14.9,18.3,30.9,21,48.8c17.2,90.8-32.4,179.7-13.9,270.4
			c9.6-17.6,20.7-35,36.8-47.4c69.9-57.1,168.2-59.8,237.5-117.8c-17.9-0.1-36.3-0.5-53.2-7.1C890.4,939.7,837.8,852.2,749,824.6z"
			/>
	</g>
	<path class="st0" d="M1485.3,978.3c39.4-9,80.4,25.9,77.2,66.2c-0.4,39.1-41.4,70.4-79.3,60.6c-37.9-7.5-61.8-52.8-45.5-88.1
		C1445.6,997.1,1464.2,982.1,1485.3,978.3z"/>
	<path class="st0" d="M787.8,1331.7c21-65.4,72.5-122.5,139.3-141.9c-16.8,27.2-35.3,54.1-43.9,85.4
		c-18.1,56.3-17.4,116.6-9.5,174.6c13.5,111.9,3.3,232.1-57.1,329.9c-33.1,52.8-76.4,101-130.9,132.2
		c-82.5,46.4-185.6,48.9-273.2,15.5c-64.6-23.6-119.4-69.1-159.7-124.2c-48.2-64.5-79.2-143.1-81.8-223.9
		c-2.9-13.4,19.8-19.5,24.1-6.4c27.4,62.4,59.7,124.9,110.7,171.6c97.7,90.7,264.9,88.8,360-4.8c40.3-40.1,71.2-90.9,82.4-147
		C765.1,1506.3,760.6,1416.1,787.8,1331.7z"/>
</g>
</svg>
