<?xml version="1.0" encoding="utf-8"?>
<!-- Generator: Adobe Illustrator 26.1.0, SVG Export Plug-In . SVG Version: 6.00 Build 0)  -->
<svg version="1.1" id="Layer_1" xmlns="http://www.w3.org/2000/svg" xmlns:xlink="http://www.w3.org/1999/xlink" x="0px" y="0px"
	 viewBox="0 0 2000 2000" style="enable-background:new 0 0 2000 2000;" xml:space="preserve">
<style type="text/css">
	.st0{fill:#D0A85C;}
</style>
<g>
	<g>
		<path class="st0" d="M1143,50c71.7,50.5,143.3,141.4,153.9,229.6c8.4,55-3.4,110.1-19.5,162.5c-24.1-15.3-47.2-38.8-77.9-36.3
			c-46.5-0.3-85.4,47-77.8,92.5c4.5,38.5,39.4,71.1,78.5,70.8c20.7-1.8,40.2-9.9,59.8-16.3c46,16.6,85.7,45.7,122.7,77
			c6.8-10.3,13.4-20.7,20-31.2c-1.6-21.8-12.1-47.4,3.7-66.4c28.6-34.8,80.3-38.1,120.9-26.2c76.3,23.1,131.3,92.2,152,167.3
			c25.5,95.6,3,202.6-58.1,280.4c-23.8,31.2-54.4,56.1-81.7,84c62.7-30.4,119.9-74.1,158.9-132.5c66-95.4,80.7-224.8,33.4-331.2
			c-6.5-21.5-23.4-42.5-18.2-65.9c23.4-4.4,47.1-6.3,70.6-9.4v-0.8c-46.8-40.7-82.5-93-133.3-129.1
			c-58.3-43.5-127.8-70.6-199.6-81.2c-24.3-5.5-53.5-6.4-70-27.9c-25.3-32.4-41.9-71.1-70.4-101.2c-37-42.5-86.5-71.4-136.8-95.4
			L1143,50z M1469.5,334.8c74,17,146.4,52,198,108.5c14.1,20-11.2,42.5-30.9,31.6c-38-24.4-73.3-54.4-117.1-68.6
			c-46.2-19-96.7-19.6-145.3-26.6c-16.7-14.5-12.6-44,8.5-52.1C1411.8,323.6,1441.1,329.2,1469.5,334.8z M1230.2,456.2
			c22.8,19.5,15.3,60.2-12.8,70.4c-30.2,14.7-66.9-20.4-54.7-51.4C1169.6,446.6,1209.1,435.9,1230.2,456.2z"/>
	</g>
	<g>
		<path class="st0" d="M857,50c-71.7,50.5-143.3,141.4-153.9,229.6c-8.4,55,3.4,110.1,19.5,162.5c24.1-15.3,47.2-38.8,77.9-36.3
			c46.5-0.3,85.4,47,77.8,92.5c-4.5,38.5-39.4,71.1-78.5,70.8c-20.7-1.8-40.2-9.9-59.8-16.3c-46,16.6-85.7,45.7-122.7,77
			c-6.8-10.3-13.4-20.7-20-31.2c1.6-21.8,12.1-47.4-3.7-66.4c-28.6-34.8-80.3-38.1-120.9-26.2c-76.3,23.1-131.3,92.2-152,167.3
			c-25.5,95.6-3,202.6,58.1,280.4c23.8,31.2,54.4,56.1,81.7,84c-62.7-30.4-119.9-74.1-158.9-132.5c-66-95.4-80.7-224.8-33.4-331.2
			c6.5-21.5,23.4-42.5,18.2-65.9c-23.4-4.4-47.1-6.3-70.6-9.4v-0.8c46.8-40.7,82.5-93,133.3-129.1c58.3-43.5,127.8-70.6,199.6-81.2
			c24.3-5.5,53.5-6.4,70-27.9c25.3-32.4,41.9-71.1,70.4-101.2c37-42.5,86.5-71.4,136.8-95.4L857,50z M530.5,334.8
			c-74,17-146.4,52-198,108.5c-14.1,20,11.2,42.5,30.9,31.6c38-24.4,73.3-54.4,117.1-68.6c46.2-19,96.7-19.6,145.3-26.6
			c16.7-14.5,12.6-44-8.5-52.1C588.2,323.6,558.9,329.2,530.5,334.8z M769.8,456.2c-22.8,19.5-15.3,60.2,12.8,70.4
			c30.2,14.7,66.9-20.4,54.7-51.4C830.4,446.6,790.9,435.9,769.8,456.2z"/>
	</g>
	<path class="st0" d="M833.3,601.1c38.6-10,60.9-45.4,80.6-77.1c15.1,23,30.4,46,45.8,69c-38.8,15.1-73.6,38.4-103.3,67.6
		c-37.5,6.1-77.1,13.2-106.2,39.6c-63,49-85.1,134-76.3,210.6c11.5,103.1,47.3,206.3,115.8,285.7c35,43.8,82.8,76.1,112.5,124.3
		c4.6,1.8,13.7,5.6,18.3,7.6c0.6,21.6,1.3,43.4,2.2,65.1c51.7,1.3,103.4,1.3,155.2,0c0.8-21.6,1.5-43.3,2.1-65.1
		c4.6-1.8,13.7-5.6,18.4-7.6c23.9-39.4,60.6-67.9,91.9-101c83.7-85.2,126.8-203.2,137.2-320.7c6.6-76.1-19.9-158.2-83.6-204
		c-28.2-23.4-66.2-25-99.1-37.6c-33.3-23.7-65.1-50.2-103.9-64.7c15.3-22.7,30.6-45.5,45.7-68.4c19.8,31,41.8,66.2,79.8,76.4
		c31.7,11.7,64.9,1.3,96.2-6.1c78.6,38.5,140.9,113.6,149,202.7c16.5,163.6-55.8,326.1-167.5,442.9c-42.5,45.2-95.8,93.6-87.4,162.2
		c-8.6,11.3-17.2,22.6-25.8,33.9c-14.9-0.2-29.9-0.3-44.8-0.5c-12.6,18.4-25.3,36.9-37.9,55.4c11,0.2,33.1,0.8,44.2,1
		c-13.7,27.9-26.8,56.1-39.3,84.5c-9.6,0-28.9,0-38.5,0c-0.1,9-0.5,27.4-0.6,36.5c7.9,0.5,23.9,1.5,32,1.9
		c-48.1,102.1-34.1,225.6-44.8,334.6l0,0c-14.5-108.8,1.2-232.4-46.8-334.6c7.9-0.5,23.8-1.5,31.7-2.1c-0.1-9-0.5-27.1-0.6-36.3
		c-9.7-0.1-29.1-0.3-38.7-0.5c-12.4-28.4-25.5-56.5-39.3-84.2c11.1-0.2,33.1-0.6,44.1-0.8c-12.6-18.4-24.9-36.9-37.3-55.3
		c-15,0-30,0-45,0c-8.6-11.2-17.2-22.4-25.7-33.6c7.9-65.5-40.4-113.3-81.8-156.3c-114.5-118-190.4-283.1-172.9-449.8
		c8.2-88.9,70.6-163.6,149-201.9C769,601.9,801.8,612.3,833.3,601.1z"/>
	<path class="st0" d="M1000.6,600.9c11.3,23.6,16,53.7,39.9,68.5c33.1,21.5,68.4,39.7,99.9,63.6c-4.7,16.3-9.4,32.4-14.2,48.7
		c-10,7.3-20,14.7-30,22c-11.6-7.3-23.1-14.5-34.7-21.8c2.7-8.6,8-25.7,10.7-34.1c-38-26.8-88-41.6-109.8-86.1
		C975.4,641.7,988.3,621.4,1000.6,600.9z"/>
	<path class="st0" d="M855.8,724.9c30.8-13.6,62-26.2,93.3-38.5c-9.3,14.7-18.7,29.3-27.9,44.1c60.9,44.8,127.8,81.1,189.3,125.2
		c-3.9,38-35.4,56.4-66.8,70.8c1.6-15.2,7.7-30.5,4.8-45.8c-51.1-38.3-107.9-68-160-104.8C870.3,764.8,865.5,742.4,855.8,724.9z"/>
	<path class="st0" d="M877.6,859.3c13.2-10.7,26.3-21.4,39.5-32.1c16.5,13.5,30,28.7,22.9,51.7c27.7,25.3,67.2,42,83.3,77.5
		c4.8,47.9-11.1,95.3-20.5,142c-10.1-40.8-10.5-84.5-27.8-123C941.1,937.4,888.3,914.2,877.6,859.3z"/>
	<path class="st0" d="M1064.9,377.6c8.6-1.8,25.7-5.5,34.2-7.4c-27.9-26-64.3-39.2-100.5-39.7v0c0,0-0.1,0-0.1,0c0,0-0.1,0-0.1,0
		c0,0-0.1,0-0.1,0c0,0-0.1,0-0.1,0v0c-36.3,0.5-72.6,13.7-100.5,39.7c8.6,1.9,25.7,5.6,34.2,7.4c10.7,27.4,20.2,55.1,28.4,83.2
		c-7.2,4.8-21.9,14.2-29.2,19c14.7,15.8,31.2,29.9,51.3,38.4c4.7,18.5,9.7,37.1,15.9,55.2v0c0,0.1,0.1,0.3,0.1,0.4v0c0,0,0,0,0,0
		c0,0,0,0,0,0v0c0-0.1,0.1-0.3,0.1-0.4v0c6.2-18.2,11.2-36.7,15.9-55.2c20.2-8.5,36.7-22.6,51.3-38.4c-7.3-4.8-22-14.2-29.2-19
		C1044.7,432.7,1054.2,405,1064.9,377.6z"/>
</g>
</svg>
